<svg xmlns="http://www.w3.org/2000/svg" viewBox="0 0 668.34 783.12"><defs><style>.cls-1{fill:#dedef0;}</style></defs><title>star</title><g id="Capa_2" data-name="Capa 2"><g id="Capa_1-2" data-name="Capa 1"><path class="cls-1" d="M239.24,18.51,350.91,121.34A69.66,69.66,0,0,0,413.56,138l148-33.69c56.29-12.82,102.85,44.48,78.78,97l-63.29,138a69.69,69.69,0,0,0,3.5,64.74l77.79,130.35c29.58,49.58-10.52,111.56-67.87,104.88L439.7,621.68A69.64,69.64,0,0,0,379.21,645L279.28,759.27c-38,43.46-109.35,24.47-120.73-32.14L128.66,578.34A69.65,69.65,0,0,0,87.73,528h0c-110-47-118.51-199.73-14.36-258.61l.52-.3A69.66,69.66,0,0,0,109,214.75l13.7-151.28C127.89,6,196.77-20.6,239.24,18.51Z"/></g></g></svg>